<svg xmlns="http://www.w3.org/2000/svg" xmlns:xlink="http://www.w3.org/1999/xlink" width="499" zoomAndPan="magnify" viewBox="0 0 374.25 368.250002" height="491" preserveAspectRatio="xMidYMid meet" version="1.0"><defs><g/><clipPath id="cb44351223"><path d="M 7.347656 4.066406 L 366.417969 4.066406 L 366.417969 363.136719 L 7.347656 363.136719 Z M 7.347656 4.066406 " clip-rule="nonzero"/></clipPath><clipPath id="2be4f38a32"><path d="M 186.882812 4.066406 C 87.730469 4.066406 7.347656 84.445312 7.347656 183.601562 C 7.347656 282.753906 87.730469 363.136719 186.882812 363.136719 C 286.035156 363.136719 366.417969 282.753906 366.417969 183.601562 C 366.417969 84.445312 286.035156 4.066406 186.882812 4.066406 Z M 186.882812 4.066406 " clip-rule="nonzero"/></clipPath><clipPath id="a7ccdf2198"><path d="M 3.292969 0.0117188 L 370.472656 0.0117188 L 370.472656 367.191406 L 3.292969 367.191406 Z M 3.292969 0.0117188 " clip-rule="nonzero"/></clipPath><clipPath id="ce864fc191"><path d="M 186.882812 0.0117188 C 288.277344 0.0117188 370.472656 82.207031 370.472656 183.601562 C 370.472656 284.996094 288.277344 367.191406 186.882812 367.191406 C 85.488281 367.191406 3.292969 284.996094 3.292969 183.601562 C 3.292969 82.207031 85.488281 0.0117188 186.882812 0.0117188 L 186.882812 14.699219 C 93.601562 14.699219 17.980469 90.320312 17.980469 183.601562 C 17.980469 276.882812 93.601562 352.503906 186.882812 352.503906 C 280.164062 352.503906 355.785156 276.882812 355.785156 183.601562 C 355.785156 90.320312 280.164062 14.699219 186.882812 14.699219 Z M 186.882812 0.0117188 " clip-rule="nonzero"/></clipPath></defs><g clip-path="url(#cb44351223)"><g clip-path="url(#2be4f38a32)"><path fill="#000000" d="M 7.347656 4.066406 L 366.417969 4.066406 L 366.417969 363.136719 L 7.347656 363.136719 Z M 7.347656 4.066406 " fill-opacity="1" fill-rule="nonzero"/></g></g><g fill="#ffffff" fill-opacity="1"><g transform="translate(48.994123, 268.803071)"><g><path d="M 22.984375 0 C 21.117188 0 20.1875 -0.929688 20.1875 -2.796875 L 20.1875 -147.5625 C 20.1875 -149.414062 21.117188 -150.34375 22.984375 -150.34375 L 32.640625 -150.34375 C 33.929688 -150.34375 35.007812 -149.695312 35.875 -148.40625 L 108.03125 -31.578125 C 108.320312 -31.140625 108.609375 -30.957031 108.890625 -31.03125 C 109.179688 -31.101562 109.328125 -31.425781 109.328125 -32 L 109.328125 -147.5625 C 109.328125 -149.414062 110.253906 -150.34375 112.109375 -150.34375 L 121.78125 -150.34375 C 123.644531 -150.34375 124.578125 -149.414062 124.578125 -147.5625 L 124.578125 -2.796875 C 124.578125 -0.929688 123.644531 0 121.78125 0 L 112.109375 0 C 110.828125 0 109.753906 -0.644531 108.890625 -1.9375 L 36.515625 -119.203125 C 36.222656 -119.628906 35.929688 -119.804688 35.640625 -119.734375 C 35.359375 -119.671875 35.21875 -119.351562 35.21875 -118.78125 L 35.4375 -2.796875 C 35.4375 -0.929688 34.503906 0 32.640625 0 Z M 22.984375 0 "/></g></g></g><g fill="#ffffff" fill-opacity="1"><g transform="translate(193.536677, 268.803071)"><g><path d="M 22.984375 0 C 21.117188 0 20.1875 -0.929688 20.1875 -2.796875 L 20.1875 -147.5625 C 20.1875 -149.414062 21.117188 -150.34375 22.984375 -150.34375 L 32.640625 -150.34375 C 34.503906 -150.34375 35.4375 -149.414062 35.4375 -147.5625 L 35.4375 -75.8125 C 35.4375 -75.382812 35.578125 -75.097656 35.859375 -74.953125 C 36.148438 -74.816406 36.441406 -74.960938 36.734375 -75.390625 L 104.171875 -148.84375 C 105.023438 -149.84375 106.171875 -150.34375 107.609375 -150.34375 L 118.34375 -150.34375 C 119.914062 -150.34375 120.703125 -149.769531 120.703125 -148.625 C 120.703125 -148.050781 120.414062 -147.476562 119.84375 -146.90625 L 68.078125 -88.28125 C 67.648438 -87.707031 67.582031 -87.203125 67.875 -86.765625 L 124.359375 -3.4375 C 124.785156 -2.863281 125 -2.289062 125 -1.71875 C 125 -0.570312 124.210938 0 122.640625 0 L 111.46875 0 C 110.039062 0 108.894531 -0.570312 108.03125 -1.71875 L 57.5625 -75.8125 C 56.988281 -76.675781 56.488281 -76.75 56.0625 -76.03125 L 35.875 -54.765625 C 35.582031 -54.191406 35.4375 -53.691406 35.4375 -53.265625 L 35.4375 -2.796875 C 35.4375 -0.929688 34.503906 0 32.640625 0 Z M 22.984375 0 "/></g></g></g><g clip-path="url(#a7ccdf2198)"><g clip-path="url(#ce864fc191)"><path fill="#ffffff" d="M 3.292969 0.0117188 L 370.472656 0.0117188 L 370.472656 367.191406 L 3.292969 367.191406 Z M 3.292969 0.0117188 " fill-opacity="1" fill-rule="nonzero"/></g></g></svg>